<svg width="55" height="50" viewBox="0 0 55 50" fill="none" xmlns="http://www.w3.org/2000/svg">
<rect x="7.07288" y="22.973" width="27.027" height="27.027" rx="13.5135" fill="#8FFF00"/>
<rect x="20.5864" width="23.2432" height="23.2432" rx="11.6216" fill="#4200FF"/>
<rect x="35.9918" y="21.8919" width="18.3784" height="18.3784" rx="9.18919" fill="#00958C"/>
<path d="M10.5611 23.4083L11.0033 23.1748L11.0033 23.1748L10.5611 23.4083ZM10.8459 24.7048C11.1098 24.7862 11.3897 24.6384 11.4712 24.3746L12.7991 20.0749C12.8805 19.8111 12.7327 19.5311 12.4689 19.4497C12.205 19.3682 11.9251 19.516 11.8436 19.7799L10.6633 23.6018L6.84139 22.4214C6.57754 22.34 6.2976 22.4878 6.21611 22.7516C6.13463 23.0155 6.28246 23.2954 6.54631 23.3769L10.8459 24.7048ZM10.119 23.6418L10.5513 24.4605L11.4356 23.9935L11.0033 23.1748L10.119 23.6418ZM18.065 7.24882C10.5628 8.6313 6.5567 16.8961 10.119 23.6418L11.0033 23.1748C7.75616 17.026 11.4078 9.49243 18.2463 8.23226L18.065 7.24882Z" fill="#D9D9D9"/>
</svg>
